<svg xmlns="http://www.w3.org/2000/svg" width="512" height="512" viewBox="0 0 512 512">
  <defs>
    <linearGradient id="bg" x1="0" y1="0" x2="1" y2="1">
      <stop offset="0" stop-color="#132542"/>
      <stop offset="1" stop-color="#0a1120"/>
    </linearGradient>
    <linearGradient id="line" x1="0" y1="1" x2="1" y2="0">
      <stop offset="0" stop-color="#3ddc97"/>
      <stop offset="1" stop-color="#4a9eff"/>
    </linearGradient>
    <linearGradient id="area" x1="0" y1="0" x2="0" y2="1">
      <stop offset="0" stop-color="#3ddc97" stop-opacity="0.35"/>
      <stop offset="1" stop-color="#3ddc97" stop-opacity="0"/>
    </linearGradient>
  </defs>
  <rect x="0" y="0" width="512" height="512" rx="112" fill="url(#bg)"/>
  <path d="M64 360 L128 300 L192 330 L256 210 L320 250 L384 150 L448 190 L448 400 L64 400 Z" fill="url(#area)"/>
  <path d="M64 360 L128 300 L192 330 L256 210 L320 250 L384 150 L448 190" fill="none" stroke="url(#line)" stroke-width="16" stroke-linecap="round" stroke-linejoin="round"/>
  <circle cx="384" cy="150" r="18" fill="#3ddc97"/>
  <circle cx="384" cy="150" r="30" fill="none" stroke="#3ddc97" stroke-width="6" opacity="0.5"/>
  <g stroke="#4a9eff" stroke-width="8" opacity="0.9">
    <line x1="150" y1="392" x2="150" y2="440"/>
    <line x1="360" y1="392" x2="360" y2="452"/>
  </g>
  <rect x="140" y="404" width="20" height="26" rx="4" fill="#4a9eff"/>
  <rect x="350" y="408" width="20" height="34" rx="4" fill="#e5534b"/>
</svg>
