<svg xmlns="http://www.w3.org/2000/svg" width="1024" height="1024" viewBox="0 0 1024 1024">
  <defs>
    <linearGradient id="g" x1="0" y1="0" x2="1" y2="1">
      <stop offset="0" stop-color="#c8102e"/>
      <stop offset="1" stop-color="#ff5252"/>
    </linearGradient>
  </defs>
  <rect width="1024" height="1024" rx="220" fill="#1a0608"/>
  <rect x="80" y="80" width="864" height="864" rx="180" fill="url(#g)"/>
  <g fill="#ffffff">
    <path d="M512 280c-146 0-264 96-264 214 0 66 38 124 97 162-7 36-28 70-58 96 49-7 96-26 134-54 29 8 59 14 91 14 146 0 264-96 264-214S658 280 512 280z"/>
  </g>
  <g fill="#c8102e">
    <circle cx="420" cy="494" r="30"/>
    <circle cx="512" cy="494" r="30"/>
    <circle cx="604" cy="494" r="30"/>
  </g>
</svg>