<svg xmlns="http://www.w3.org/2000/svg" width="1024" height="1024" viewBox="0 0 1024 1024">
  <!--pupikes-custom-icon: ръчен дизайн (QR код) — НЕ регенерирай-->
  <defs>
    <linearGradient id="g" x1="0" y1="0" x2="1" y2="1">
      <stop offset="0" stop-color="#8b93ff"/><stop offset="1" stop-color="#3730a3"/>
    </linearGradient>
    <radialGradient id="hi" cx="0.32" cy="0.24" r="0.9">
      <stop offset="0" stop-color="rgba(255,255,255,0.20)"/><stop offset="0.6" stop-color="rgba(255,255,255,0)"/>
    </radialGradient>
  </defs>
  <rect width="1024" height="1024" fill="url(#g)"/>
  <rect width="1024" height="1024" fill="url(#hi)"/>
  <rect x="236" y="196" width="552" height="470" rx="120" fill="#fff"/>
  <circle cx="742" cy="250" r="46" fill="#8b93ff"/>
  <!-- QR код (Authenticator & Passwords) -->
  <g fill="#3730a3">
    <rect x="392" y="300" width="126" height="126" rx="14"/><rect x="410" y="318" width="90" height="90" rx="8" fill="#fff"/><rect x="428" y="336" width="54" height="54" rx="4"/>
    <rect x="506" y="300" width="126" height="126" rx="14"/><rect x="524" y="318" width="90" height="90" rx="8" fill="#fff"/><rect x="542" y="336" width="54" height="54" rx="4"/>
    <rect x="392" y="414" width="126" height="126" rx="14"/><rect x="410" y="432" width="90" height="90" rx="8" fill="#fff"/><rect x="428" y="450" width="54" height="54" rx="4"/>
    <rect x="542" y="432" width="18" height="18"/><rect x="578" y="432" width="18" height="18"/><rect x="614" y="450" width="18" height="18"/>
    <rect x="524" y="468" width="18" height="18"/><rect x="560" y="468" width="18" height="18"/><rect x="596" y="486" width="18" height="18"/>
    <rect x="614" y="486" width="18" height="18"/><rect x="542" y="504" width="18" height="18"/><rect x="578" y="504" width="18" height="18"/>
    <rect x="614" y="522" width="18" height="18"/><rect x="524" y="522" width="18" height="18"/><rect x="560" y="522" width="18" height="18"/>
  </g>
  <text x="512" y="892" font-family="Segoe UI, Arial, Helvetica, sans-serif" font-size="118" font-weight="700" letter-spacing="7" fill="rgba(255,255,255,0.96)" text-anchor="middle">pupikes</text>
</svg>
