<svg xmlns="http://www.w3.org/2000/svg" width="2048" height="2048" viewBox="0 0 2048 2048">
  <defs>
    <linearGradient id="g" x1="0" y1="0" x2="1" y2="1">
      <stop offset="0" stop-color="#1f6feb"/>
      <stop offset="1" stop-color="#58a6ff"/>
    </linearGradient>
  </defs>
  <rect width="2048" height="2048" fill="#0d1117"/>
  <g transform="translate(704,560)">
    <rect width="640" height="640" rx="140" fill="url(#g)"/>
    <g transform="translate(320,320) scale(0.55) translate(-512,-512)">
      <path fill="#ffffff" d="M512 280c-146 0-264 96-264 214 0 66 38 124 97 162-7 36-28 70-58 96 49-7 96-26 134-54 29 8 59 14 91 14 146 0 264-96 264-214S658 280 512 280z"/>
      <circle cx="420" cy="494" r="30" fill="#1f6feb"/>
      <circle cx="512" cy="494" r="30" fill="#1f6feb"/>
      <circle cx="604" cy="494" r="30" fill="#1f6feb"/>
    </g>
  </g>
  <text x="1024" y="1480" font-family="system-ui,Segoe UI,Roboto,sans-serif" font-size="104" font-weight="700" fill="#e6edf3" text-anchor="middle">Pupikes Chat</text>
</svg>